<?xml version="1.0" encoding="utf-8"?>
<!-- Generator: Adobe Illustrator 27.0.0, SVG Export Plug-In . SVG Version: 6.00 Build 0)  -->
<svg version="1.1" id="b90c7bb8-f498-40c4-869b-58bb72a10db7"
	 xmlns="http://www.w3.org/2000/svg" xmlns:xlink="http://www.w3.org/1999/xlink" x="0px" y="0px" viewBox="0 0 1080 1080"
	 style="enable-background:new 0 0 1080 1080;" xml:space="preserve">
<style type="text/css">
	.st0{fill:#FFFFFF;}
	.st1{fill:#0E0EE2;}
	.st2{fill:#F4003A;}
</style>
<path class="st0" d="M378.3,215.5H780c3.2,0,4,0.7,4,3.9c-0.2,24.6-0.1,49.3-0.2,74.1c-0.1,2.8,0.8,3.2,3.3,3.2h74.7
	c2.3,0,3.2,0.4,3.2,3c-0.1,106.2-0.1,212.3,0,318.4c0,2.4-0.5,3.2-3.1,3.2c-24.9-0.2-49.8,0-74.7-0.2c-2.8,0-3.4,0.7-3.4,3.5
	l0.2,236.3c0,3.2-0.9,3.8-3.8,3.7c-24.7-0.1-49.4-0.1-74.1,0c-2.6,0-3.3-0.5-3.3-3.2c0.1-24.9,0-49.9,0.2-74.8
	c0-2.6-0.6-3.3-3.3-3.2c-24.9,0.1-49.8,0.1-74.7,0c-2.7-0.1-3.2,0.7-3.2,3.3c0.1,24.9,0,49.8,0.1,74.7c0.1,2.3-0.4,3.2-3,3.2
	c-25-0.1-50-0.1-75,0c-2.5,0-3.2-0.5-3.2-3.1c0.2-25,0-50,0.2-75c0-2.6-0.8-3.1-3.2-3.1h-77.9c-0.1-1.3-0.1-2.6-0.1-3.8
	c0-24.7,0-49.4,0.1-74.1c0-2.7-0.7-3.3-3.3-3.3c-26,0.1-51.9,0-77.9,0h0.1c0-25.8-0.1-51.8,0-77.6c0-2.9-0.8-3.6-3.6-3.6h-77.5
	V296.5h77.1c3.1,0.1,4.1-0.5,4.1-3.8C378.3,266.9,378.3,241.2,378.3,215.5z M783.8,458.7c0.1-1.1,0.1-2.1,0.1-3.2
	c0.1-24.8,0-49.6,0.1-74.4c0.1-2.9-0.7-3.6-3.5-3.6c-51.7,0.2-103.4,0.2-155.2,0c-2.9,0-3.6,0.8-3.6,3.6c0,51.8,0.1,103.5,0.1,155.2
	c0,0.5,0,1.1,0,1.6c-0.2,1.6,0.4,2,2,2s4.2,0,6.3,0h86.8c21.5,0,42.9-0.1,64.3,0.1c2.4,0,3.2-0.6,2.9-2.9s0-5.9,0-8.9
	C783.9,505,783.9,481.8,783.8,458.7z M459.5,539.7h14c21.4,0,42.8-0.1,64.3,0.1c2.3,0,3.1-0.6,2.9-2.9s-0.1-5.9-0.1-8.9
	c0-23.1-0.1-46.3-0.1-69.4c0-1.1,0.1-2.1,0.1-3.2c0-24.8-0.1-49.6,0.1-74.4c0-2.9-0.7-3.6-3.6-3.6c-51.7,0.2-103.4,0.2-155.2,0
	c-2.9,0-3.6,0.8-3.6,3.6c0.1,51.8,0.1,103.5,0.1,155.2c0,0.5,0,1.1,0,1.6c-0.2,1.6,0.5,2,2,2s4.2,0,6.3,0L459.5,539.7z M581.2,620.9
	c-12.5,0-25.2,0.1-37.7-0.1c-2.3,0-3,0.4-3,2.9c0.2,25.2,0.1,50.2,0,75.4c0,2.2,0.4,3,2.9,3c25.2-0.2,50.2-0.2,75.4-0.1
	c2.3,0,3-0.4,3-2.9c-0.2-25.1-0.2-50.2,0-75.3c0-2.7-0.9-3-3.2-3C606.1,621,593.7,620.9,581.2,620.9z"/>
<path class="st1" d="M297.3,296.5v324.5c-25.9,0-51.8-0.1-77.6,0.1c-2.9,0-3.6-0.8-3.6-3.7c0.1-105.8,0.1-211.5,0-317.3
	c0-2.9,0.7-3.7,3.6-3.6L297.3,296.5z"/>
<path class="st0" d="M378.3,702c26,0,51.9,0.1,77.9,0c2.6,0,3.3,0.6,3.3,3.3c-0.1,24.6-0.1,49.3-0.1,74.1c0,1.3,0.1,2.6,0.1,3.8
	c-0.1,23.6-0.1,47.2-0.1,70.9c0,2.5-0.2,5,0.1,7.6s-0.6,2.6-2.7,2.6h-36.7c-12.6,0-25.2,0.1-37.7,0c-4.7,0-4.1,0.7-4.1-4.2
	L378.3,702z"/>
<path class="st0" d="M378.3,215.5c0,25.8-0.1,51.5,0.1,77.2c0,3.3-1,3.9-4.1,3.8h-77.2c0-26,0.1-52,0-77.9c0-2.6,0.6-3.3,3.2-3.3
	C326.4,215.5,352.4,215.5,378.3,215.5z"/>
<path class="st0" d="M297.2,620.9h77.6c2.9,0,3.6,0.8,3.6,3.6c-0.1,25.8,0,51.8,0,77.6c-25.9,0-51.8-0.1-77.6,0.1
	c-2.9,0-3.7-0.8-3.6-3.7C297.3,672.6,297.2,646.8,297.2,620.9z"/>
<path class="st2" d="M378.3,497.7c0-26,0.1-51.9-0.1-77.8c0-2.6,0.7-3.3,3.3-3.3c25.9,0.1,51.8,0.1,77.8,0.1
	c0,23.1,0.1,46.3,0.1,69.4c0,2.9-0.2,5.9,0.1,8.9s-0.6,2.9-2.9,2.9c-21.5-0.1-42.9-0.1-64.3-0.1L378.3,497.7z"/>
<path class="st2" d="M622.5,497.7c0-26,0-51.9-0.1-77.8c0-2.6,0.6-3.3,3.2-3.3c26,0.1,51.9,0.1,77.8,0.1c0.1,23.1,0.1,46.2,0.2,69.4
	c0,2.9-0.2,5.9,0,8.9s-0.5,2.9-2.9,2.9c-21.4-0.1-42.8-0.1-64.3-0.1L622.5,497.7z"/>
</svg>
